<svg width="170" height="43" viewBox="0 0 170 43" fill="none" xmlns="http://www.w3.org/2000/svg">
<g filter="url(#filter0_d_2_7432)">
<g opacity="0.5">
<path d="M29.875 4.6876H33.2645C34.1913 4.6876 34.9505 5.45833 34.9505 6.41263V9.87422C34.9505 10.8285 34.1913 11.5992 33.2645 11.5992H29.875C28.9482 11.5992 28.1891 10.8285 28.1891 9.87422V6.41263C28.1891 5.45833 28.9482 4.6876 29.875 4.6876ZM33.2645 10.4569C33.584 10.4569 33.8382 10.1928 33.8382 9.87422V6.41263C33.8382 6.09407 33.584 5.82993 33.2645 5.82993H29.875C29.5555 5.82993 29.3013 6.09407 29.3013 6.41263V9.87422C29.3013 10.1928 29.5555 10.4569 29.875 10.4569H33.2645Z" fill="#EAEAEA" stroke="black" stroke-width="0.3"/>
<path d="M6.14861 14.4838H5.99861V14.6338V27.4489C5.99861 30.8008 8.65947 33.534 11.939 33.534H31.4284C34.7072 33.534 37.3688 30.8008 37.3688 27.4489V14.6338V14.4838H37.2188H28.589H28.2265L28.4831 14.7399C30.2926 16.5467 31.4197 19.0626 31.4197 21.8454C31.4197 27.333 27.0493 31.7917 21.6837 31.7917C16.3181 31.7917 11.9477 27.333 11.9477 21.8454C11.9477 19.0626 13.0748 16.5467 14.8843 14.7399L15.1409 14.4838H14.7783H6.14861ZM26.6712 13.3193L26.7072 13.3414H26.7495H37.2188H37.3688V13.1914V8.30988C37.3688 4.95719 34.7072 2.22397 31.4284 2.22397H11.939C8.66018 2.22397 5.99861 4.95719 5.99861 8.30988V13.1914V13.3414H6.14861H16.6178H16.6602L16.6962 13.3193C18.1577 12.4235 19.8601 11.8991 21.6837 11.8991C23.5073 11.8991 25.2097 12.4235 26.6712 13.3193ZM11.939 1.08164H31.4284C35.3135 1.08164 38.4811 4.32049 38.4811 8.30988V13.1914V14.6338V27.4489C38.4811 31.4375 35.3136 34.6764 31.4284 34.6764H11.939C8.05384 34.6764 4.88633 31.4375 4.88633 27.4489V14.6338V13.1914V8.30988C4.88633 4.32049 8.05385 1.08164 11.939 1.08164ZM21.6837 30.6494C26.442 30.6494 30.3074 26.6972 30.3074 21.8454C30.3074 16.9936 26.442 13.0414 21.6837 13.0414C16.9254 13.0414 13.06 16.9936 13.06 21.8454C13.06 26.6972 16.9254 30.6494 21.6837 30.6494Z" fill="#EAEAEA" stroke="black" stroke-width="0.3"/>
<path d="M21.6834 28.1845C18.2646 28.1845 15.4781 25.3426 15.4781 21.844C15.4781 18.3454 18.2646 15.5035 21.6834 15.5035C25.1021 15.5035 27.8887 18.3454 27.8887 21.844C27.8887 25.3426 25.1021 28.1845 21.6834 28.1845ZM21.6834 27.0421C24.4942 27.0421 26.7764 24.7076 26.7764 21.844C26.7764 18.9804 24.4942 16.6458 21.6834 16.6458C18.8726 16.6458 16.5904 18.9804 16.5904 21.844C16.5904 24.7076 18.8726 27.0421 21.6834 27.0421Z" fill="#EAEAEA" stroke="black" stroke-width="0.3"/>
</g>
<path opacity="0.5" d="M93.0443 1.60879L93.0588 1.60213L93.0728 1.59456C93.5885 1.31638 93.9955 1.41766 94.2532 1.71465C94.5461 2.05222 94.7623 2.77449 94.517 3.94764L94.5154 3.955L94.5141 3.9624L89.4017 32.6912L89.4014 32.6927C89.2294 33.6764 88.9202 34.1055 88.6497 34.2507C88.4145 34.3769 88.0178 34.3807 87.3725 33.9646L79.6118 27.1295L79.2327 26.7956L78.9027 27.1782L75.1598 31.518L75.1586 31.5194L75.1361 31.5452C74.9165 31.7981 74.7682 31.9688 74.5957 32.0916C74.5692 32.1104 74.542 32.1281 74.5137 32.1446L74.9985 23.5068L89.3226 8.0925C89.3231 8.09198 89.3236 8.09146 89.3241 8.09095C89.5163 7.88713 89.6822 7.62919 89.6915 7.3355C89.6965 7.17798 89.6548 7.0195 89.5585 6.88274C89.4645 6.74925 89.3376 6.66313 89.2121 6.61174C88.9707 6.51291 88.6983 6.52458 88.4568 6.58424C88.2054 6.64637 87.941 6.77108 87.6851 6.95673L87.685 6.95667L87.6781 6.96189L70.0616 20.2149L62.6096 17.443L62.607 17.4421C61.8518 17.1657 61.7135 16.8149 61.7301 16.6177C61.7521 16.3574 62.0406 15.8838 63.0237 15.4122L93.0443 1.60879Z" stroke="#EAEAEA"/>
<g opacity="0.5">
<path d="M135.893 25.2575L135.676 24.807L135.893 25.2575L148.869 19.0106C149.632 18.6434 149.644 17.5567 148.891 17.1713L135.915 10.5339C135.229 10.1829 134.431 10.69 134.431 11.4481V24.3324C134.431 25.0798 135.208 25.5871 135.893 25.2575ZM127.575 1.43164H155.317C160.479 1.43164 164.672 5.65725 164.672 10.8797V24.8783C164.672 30.1008 160.479 34.3264 155.317 34.3264H127.575C122.413 34.3264 118.22 30.1008 118.22 24.8783V10.8797C118.22 5.65725 122.413 1.43164 127.575 1.43164Z" stroke="#EAEAEA"/>
</g>
</g>
<defs>
<filter id="filter0_d_2_7432" x="0.736328" y="0.931641" width="168.436" height="41.8945" filterUnits="userSpaceOnUse" color-interpolation-filters="sRGB">
<feFlood flood-opacity="0" result="BackgroundImageFix"/>
<feColorMatrix in="SourceAlpha" type="matrix" values="0 0 0 0 0 0 0 0 0 0 0 0 0 0 0 0 0 0 127 0" result="hardAlpha"/>
<feOffset dy="4"/>
<feGaussianBlur stdDeviation="2"/>
<feComposite in2="hardAlpha" operator="out"/>
<feColorMatrix type="matrix" values="0 0 0 0 0 0 0 0 0 0 0 0 0 0 0 0 0 0 0.25 0"/>
<feBlend mode="normal" in2="BackgroundImageFix" result="effect1_dropShadow_2_7432"/>
<feBlend mode="normal" in="SourceGraphic" in2="effect1_dropShadow_2_7432" result="shape"/>
</filter>
</defs>
</svg>
