<svg width="76" height="15" viewBox="0 0 76 15" fill="none" xmlns="http://www.w3.org/2000/svg">
<path d="M59.206 0.785613V12.1789C59.206 12.6126 58.8637 12.9645 58.4419 12.9645H57.4946C57.1156 12.9645 56.8039 12.6816 56.7428 12.3109C56.6174 12.3454 56.4891 12.3612 56.3546 12.3612H52.938C52.0455 12.3612 51.3242 11.6196 51.3242 10.7022V9.6117C51.3242 9.01788 50.2854 8.63444 50.2854 8.63444H49.3898C48.638 8.63444 48.0267 8.00613 48.0267 7.23331V5.48293C48.0267 4.7101 48.638 4.08179 49.3898 4.08179H50.2854C50.2854 4.08179 50.979 3.9905 51.3242 3.37141V2.1304C51.3242 1.21603 52.0455 0.471457 52.938 0.471457H56.3546C56.4982 0.471457 56.6389 0.49034 56.7733 0.531077C56.8741 0.223166 57.1584 0 57.4946 0H58.4419C58.8637 0 59.206 0.351921 59.206 0.785613Z" fill="white"/>
<path d="M10.0272 10.5379H11.7367V14.9999H9.76398V12.397H0V0.566406H2.10388V10.5379H7.90651V0.566406H10.0272V10.5379Z" fill="white"/>
<path d="M17.4738 1.9363C17.0241 1.9363 16.6682 2.05197 16.4053 2.28272C16.1423 2.51376 16.0107 2.81513 16.0107 3.18697C16.0107 3.45742 16.0818 3.71389 16.2244 3.95578C16.3666 4.19843 16.6408 4.52789 17.0464 4.94479C17.7039 4.57294 18.1611 4.24912 18.4188 3.97273C18.6764 3.69694 18.8049 3.39557 18.8049 3.06877C18.8049 2.71938 18.6871 2.44329 18.4517 2.24064C18.2161 2.0377 17.89 1.9363 17.4738 1.9363ZM17.0957 10.843C18.0489 10.843 18.8817 10.5449 19.5941 9.94719L16.5533 6.9558C15.8956 7.32749 15.4327 7.68565 15.1639 8.02895C14.8954 8.37284 14.7614 8.75881 14.7614 9.1867C14.7614 9.68284 14.975 10.0825 15.4025 10.3867C15.8298 10.6909 16.3941 10.843 17.0957 10.843ZM23.3914 11.2148L22.257 12.5838L20.8105 11.1472C19.7365 12.0936 18.4489 12.5669 16.9478 12.5669C15.7313 12.5669 14.7286 12.2713 13.9395 11.6797C13.1504 11.0881 12.7559 10.3305 12.7559 9.40645C12.7559 8.67406 12.964 8.02895 13.3806 7.47141C13.7969 6.91357 14.4761 6.36451 15.4188 5.82362C14.5641 4.94479 14.1368 4.07696 14.1368 3.22072C14.1368 2.38709 14.4407 1.71388 15.0489 1.20094C15.6573 0.688448 16.4652 0.432129 17.4738 0.432129C18.405 0.432129 19.1503 0.666148 19.7092 1.13344C20.2681 1.60118 20.5474 2.23514 20.5474 3.03488C20.5474 3.64341 20.3638 4.18415 19.9969 4.65739C19.6296 5.13063 19.0295 5.60967 18.1967 6.09391L20.679 8.52746C20.9529 7.97572 21.1665 7.31054 21.3201 6.53325L22.9804 7.09094C22.7611 8.13882 22.4159 9.04055 21.9448 9.79509L23.3914 11.2148Z" fill="white"/>
<path d="M30.5581 12.5665C28.7935 12.5665 27.328 11.992 26.1609 10.8425C24.9938 9.69341 24.4103 8.23979 24.4103 6.48198C24.4103 4.72461 24.9938 3.27114 26.1609 2.12172C27.328 0.972588 28.7994 0.397949 30.5744 0.397949C32.5142 0.397949 34.0318 1.05704 35.1278 2.37536L33.7471 3.71048C32.9143 2.7866 31.8895 2.32466 30.6731 2.32466C29.4786 2.32466 28.4952 2.71345 27.7225 3.49074C26.9499 4.26817 26.5636 5.26535 26.5636 6.48198C26.5636 7.6989 26.9499 8.69608 27.7225 9.47352C28.4952 10.2511 29.4786 10.6397 30.6731 10.6397C31.8895 10.6397 32.9143 10.1726 33.7471 9.23697L35.1278 10.589C34.0318 11.9072 32.5087 12.5665 30.5581 12.5665Z" fill="white"/>
<path d="M42.6565 10.707C44.1688 10.707 44.9249 10.1213 44.9249 8.94914C44.9249 7.80001 44.1688 7.22522 42.6565 7.22522H39.369V10.707H42.6565ZM39.369 2.25657V5.6198H42.2292C43.6428 5.6198 44.3497 5.06212 44.3497 3.94674C44.3497 2.82006 43.6428 2.25657 42.2292 2.25657H39.369ZM44.8264 6.24529C46.3276 6.66203 47.0784 7.61996 47.0784 9.11818C47.0784 10.1552 46.7058 10.9604 45.9608 11.5351C45.2153 12.1097 44.1359 12.3971 42.7223 12.3971H37.265V0.566406H42.4099C43.703 0.566406 44.7113 0.83135 45.4345 1.36079C46.158 1.89053 46.5196 2.63986 46.5196 3.60864C46.5196 4.87047 45.9551 5.74945 44.8264 6.24529Z" fill="white"/>
<path d="M58.3645 10.2335H64.0029C64.4747 10.2335 64.8575 10.6269 64.8575 11.1124C64.8575 11.5977 64.4747 11.9911 64.0029 11.9911H56.2275V0.703613H63.7727C64.2448 0.703613 64.6274 1.09716 64.6274 1.58259C64.6274 2.06788 64.2448 2.46143 63.7727 2.46143H58.3645V5.39617H63.0816C63.5449 5.39617 63.9204 5.78229 63.9204 6.2588C63.9204 6.73501 63.5449 7.12142 63.0816 7.12142H58.3645V10.2335Z" fill="white"/>
<path d="M76 0.566406V2.42562H72.1863V12.3971H70.0661V2.42562H66.2687V0.566406H76Z" fill="white"/>
</svg>
